<svg width="17" height="20" viewBox="0 0 17 20" fill="none" xmlns="http://www.w3.org/2000/svg">
<path d="M1.6899 7.65997C0.0798963 10.45 1.09989 14.68 2.87989 17.24C3.76989 18.52 4.65989 19.67 5.88989 19.67C5.90989 19.67 5.93989 19.67 5.95989 19.67C6.53989 19.65 6.95989 19.47 7.35989 19.3C7.80989 19.11 8.27989 18.91 9.01989 18.91C9.75989 18.91 10.1699 19.1 10.5999 19.29C11.0299 19.47 11.4599 19.66 12.1099 19.65C13.4899 19.62 14.3499 18.38 15.0999 17.29C15.8799 16.15 16.2799 15.04 16.4099 14.61V14.59C16.4399 14.51 16.4099 14.43 16.3299 14.4C16.3299 14.4 16.3299 14.4 16.3199 14.4C16.0799 14.3 13.9399 13.35 13.9099 10.76C13.8899 8.66001 15.5099 7.55003 15.8399 7.34003H15.8599C15.8599 7.34003 15.9199 7.26998 15.9299 7.22998C15.9299 7.18998 15.9299 7.14999 15.9099 7.10999C14.7899 5.46999 13.0699 5.22 12.3799 5.19C12.2799 5.18 12.1799 5.16998 12.0699 5.16998C11.2599 5.16998 10.4799 5.47997 9.84989 5.71997C9.41989 5.88997 9.03989 6.03998 8.78989 6.03998C8.49989 6.03998 8.1299 5.88997 7.6899 5.71997C7.1099 5.48997 6.44989 5.22998 5.74989 5.22998C5.72989 5.22998 5.71989 5.22998 5.69989 5.22998C4.07989 5.24998 2.54989 6.18002 1.69989 7.65002L1.6899 7.65997Z" fill="#D6D5D8"/>
<path d="M12.37 0.679993C11.39 0.719993 10.21 1.32002 9.51 2.15002C8.91 2.84002 8.33001 3.99997 8.48001 5.15997C8.48001 5.22997 8.55 5.28998 8.62 5.28998C8.69 5.28998 8.75 5.28998 8.82 5.28998C9.78 5.28998 10.82 4.76002 11.52 3.90002C12.26 3.00002 12.64 1.83999 12.53 0.799988C12.53 0.719988 12.45 0.659973 12.37 0.659973V0.679993Z" fill="#D6D5D8"/>
</svg>
