<svg width="17" height="17" viewBox="0 0 17 17" fill="none" xmlns="http://www.w3.org/2000/svg">
<g opacity="0.43">
<path d="M11.5299 12.35C11.8778 12.35 12.1599 12.0679 12.1599 11.72C12.1599 11.3721 11.8778 11.09 11.5299 11.09C11.182 11.09 10.8999 11.3721 10.8999 11.72C10.8999 12.0679 11.182 12.35 11.5299 12.35Z" fill="white"/>
<path d="M8.40998 15.66H3.46998C2.77998 15.66 2.21998 15.1 2.21998 14.41V9.28C2.21998 8.59 2.77998 8.03 3.46998 8.03H12.47C13.16 8.03 13.72 8.59 13.72 9.28V10.53C13.72 10.88 14 11.16 14.35 11.16C14.7 11.16 14.98 10.88 14.98 10.53V9.28C14.98 7.9 13.86 6.78 12.48 6.78H11.73V4.57999C11.73 2.55999 10.05 0.910004 7.97998 0.910004C5.90998 0.910004 4.22998 2.55999 4.22998 4.57999V6.78H3.47998C2.09998 6.78 0.97998 7.9 0.97998 9.28V14.41C0.97998 15.79 2.09998 16.91 3.47998 16.91H8.41998C8.76998 16.91 9.04998 16.63 9.04998 16.28C9.04998 15.93 8.76998 15.66 8.41998 15.66H8.40998ZM5.46998 4.57999C5.46998 3.24999 6.58998 2.16 7.96998 2.16C9.34998 2.16 10.47 3.24999 10.47 4.57999V6.78H5.46998V4.57999Z" fill="white"/>
<path d="M16.7099 11.09C16.4299 10.89 16.0399 10.95 15.8399 11.23L12.7599 15.53C12.6799 15.63 12.5699 15.65 12.5099 15.65C12.4499 15.65 12.3399 15.65 12.2399 15.55L10.2499 13.61C9.99993 13.37 9.60993 13.37 9.36993 13.62C9.12993 13.87 9.12993 14.26 9.37993 14.5L11.3699 16.45C11.6699 16.73 12.0699 16.89 12.4799 16.89C12.5199 16.89 12.5499 16.89 12.5899 16.89C13.0399 16.86 13.4499 16.64 13.7399 16.29C13.7399 16.29 13.7499 16.27 13.7599 16.26L16.8499 11.94C17.0499 11.66 16.9899 11.27 16.7099 11.07V11.09Z" fill="white"/>
<path d="M9.16003 12.35C9.50797 12.35 9.79003 12.0679 9.79003 11.72C9.79003 11.3721 9.50797 11.09 9.16003 11.09C8.81209 11.09 8.53003 11.3721 8.53003 11.72C8.53003 12.0679 8.81209 12.35 9.16003 12.35Z" fill="white"/>
<path d="M4.47009 12.35C4.81803 12.35 5.10009 12.0679 5.10009 11.72C5.10009 11.3721 4.81803 11.09 4.47009 11.09C4.12215 11.09 3.84009 11.3721 3.84009 11.72C3.84009 12.0679 4.12215 12.35 4.47009 12.35Z" fill="white"/>
<path d="M6.81994 12.35C7.16788 12.35 7.44994 12.0679 7.44994 11.72C7.44994 11.3721 7.16788 11.09 6.81994 11.09C6.472 11.09 6.18994 11.3721 6.18994 11.72C6.18994 12.0679 6.472 12.35 6.81994 12.35Z" fill="white"/>
</g>
</svg>
