<svg width="17" height="16" viewBox="0 0 17 16" fill="none" xmlns="http://www.w3.org/2000/svg">
<path opacity="0.43" d="M12.33 0.910004C14.89 0.910004 16.96 3.01 16.97 5.59V6.84C16.93 7.12 16.69 7.32999 16.4 7.32999L16.31 7.31C16.19 7.29 16.08 7.23999 16 7.14999C15.89 7.03999 15.83 6.9 15.83 6.75V5.60001C15.81 3.66001 14.26 2.09001 12.33 2.07001H5.60997C3.67997 2.09001 2.12997 3.66001 2.10997 5.60001V10.65C2.12997 12.59 3.68997 14.16 5.60997 14.18H12.33C14.26 14.16 15.81 12.59 15.83 10.65C15.86 10.34 16.14 10.11 16.46 10.14C16.73 10.17 16.94 10.38 16.97 10.65C16.97 13.23 14.89 15.32 12.33 15.33H5.60997C3.04997 15.33 0.969971 13.23 0.969971 10.65V5.60001C0.969971 3.02001 3.04997 0.920013 5.60997 0.920013H12.33V0.910004ZM4.40997 5.22C4.55997 5.2 4.70997 5.25 4.81997 5.34L8.14997 7.98999C8.55997 8.31999 9.14997 8.31999 9.56997 7.98999L12.86 5.34L12.93 5.29001C13.2 5.14001 13.55 5.23 13.71 5.5C13.85 5.74 13.79 6.05 13.57 6.22L10.28 8.88C9.44997 9.56001 8.24997 9.56001 7.40997 8.88L4.10997 6.22L4.04997 6.16C3.85997 5.95 3.84997 5.63 4.02997 5.41C4.11997 5.29 4.25997 5.22001 4.40997 5.20001V5.22Z" fill="white"/>
</svg>
