<svg width="19" height="19" viewBox="0 0 19 19" fill="none" xmlns="http://www.w3.org/2000/svg">
<path d="M18.3799 9.29999C18.3799 13.79 15.0899 17.52 10.7899 18.19V11.9H12.8899L13.2899 9.29999H10.7899V7.60999C10.7899 6.89999 11.1399 6.20001 12.2599 6.20001H13.3899V3.98999C13.3899 3.98999 12.3599 3.81 11.3799 3.81C9.31989 3.81 7.9799 5.06 7.9799 7.31V9.29001H5.6899V11.89H7.9799V18.18C3.6799 17.5 0.389893 13.78 0.389893 9.29001C0.389893 4.32001 4.41989 0.290009 9.38989 0.290009C14.3599 0.290009 18.3899 4.32001 18.3899 9.29001L18.3799 9.29999Z" fill="#1877F2"/>
<path d="M12.8899 11.9L13.2899 9.29999H10.7899V7.60999C10.7899 6.89999 11.1399 6.20001 12.2599 6.20001H13.3899V3.98999C13.3899 3.98999 12.3599 3.81 11.3799 3.81C9.31994 3.81 7.97994 5.06 7.97994 7.31V9.29001H5.68994V11.89H7.97994V18.18C8.43994 18.25 8.90994 18.29 9.38994 18.29C9.86994 18.29 10.3399 18.25 10.7999 18.18V11.89H12.8999L12.8899 11.9Z" fill="white"/>
</svg>
