<svg width="18" height="18" viewBox="0 0 18 18" fill="none" xmlns="http://www.w3.org/2000/svg">
<path d="M0.929938 5.40999C0.929938 5.40999 0.979938 5.40999 0.999938 5.40999C1.31994 5.40999 1.58993 5.17 1.62993 4.85C1.66993 4.5 1.70993 4.16998 1.76993 3.82998C1.86993 3.28998 2.15994 2.74998 2.60994 2.29998C3.04994 1.85998 3.59994 1.55998 4.13994 1.45998C4.47994 1.39998 4.80994 1.36 5.15994 1.32C5.50994 1.28 5.75994 0.969996 5.71994 0.629996C5.67994 0.279996 5.36993 0.0299984 5.01993 0.0699984C4.64993 0.109998 4.28994 0.159992 3.92994 0.219992C2.27994 0.509992 0.819936 1.96999 0.529936 3.61999C0.469936 3.98999 0.419935 4.34999 0.379935 4.71999C0.339935 5.06999 0.58994 5.37999 0.93994 5.40999H0.929938Z" fill="white"/>
<path d="M17.3598 4.71999C17.3198 4.34999 17.2698 3.99 17.2098 3.63C16.9198 1.98 15.4598 0.520002 13.8098 0.230002C13.4498 0.170002 13.0898 0.119977 12.7198 0.0799772C12.3698 0.0399772 12.0598 0.290005 12.0198 0.640005C11.9798 0.990005 12.2298 1.29998 12.5798 1.32998C12.9298 1.36998 13.2598 1.40999 13.5998 1.46999C14.1398 1.56999 14.6898 1.85999 15.1298 2.30999C15.5698 2.75999 15.8698 3.29999 15.9698 3.83999C16.0298 4.17999 16.0698 4.50998 16.1098 4.85998C16.1398 5.17998 16.4198 5.42 16.7398 5.42C16.7598 5.42 16.7898 5.42 16.8098 5.42C17.1598 5.38 17.4098 5.07 17.3698 4.73L17.3598 4.71999Z" fill="white"/>
<path d="M17.2098 13.51C17.2698 13.15 17.3198 12.79 17.3598 12.42C17.3998 12.07 17.1498 11.76 16.7998 11.73C16.4498 11.69 16.1398 11.94 16.0998 12.29C16.0598 12.64 16.0198 12.97 15.9598 13.31C15.8598 13.85 15.5698 14.39 15.1198 14.84C14.6798 15.28 14.1298 15.58 13.5898 15.68C13.2498 15.74 12.9198 15.78 12.5698 15.82C12.2198 15.86 11.9698 16.17 12.0098 16.51C12.0398 16.83 12.3198 17.07 12.6398 17.07C12.6598 17.07 12.6898 17.07 12.7098 17.07C13.0798 17.03 13.4398 16.98 13.7998 16.92C15.4498 16.63 16.9098 15.17 17.1998 13.53L17.2098 13.51Z" fill="white"/>
<path d="M0.519911 13.5C0.809911 15.15 2.26991 16.61 3.91991 16.9C4.27991 16.96 4.63992 17.01 5.00992 17.05C5.02992 17.05 5.05992 17.05 5.07992 17.05C5.39992 17.05 5.66991 16.81 5.70991 16.49C5.74991 16.14 5.49992 15.83 5.14992 15.8C4.79992 15.76 4.46991 15.72 4.12991 15.66C3.58991 15.56 3.03991 15.27 2.59991 14.82C2.15991 14.38 1.85992 13.83 1.75992 13.29C1.69992 12.95 1.65992 12.62 1.61992 12.27C1.57992 11.92 1.26991 11.67 0.919913 11.71C0.569913 11.75 0.319915 12.06 0.359915 12.4C0.399915 12.77 0.449917 13.13 0.509917 13.49L0.519911 13.5Z" fill="white"/>
<path d="M5.82984 11.77C6.71984 12.45 7.78984 12.8 8.85984 12.8C9.92984 12.8 10.9998 12.46 11.8898 11.77C12.1698 11.56 12.2198 11.16 12.0098 10.89C11.7998 10.61 11.3998 10.56 11.1298 10.77C9.79983 11.79 7.93984 11.79 6.59984 10.77C6.31984 10.56 5.92984 10.61 5.71984 10.89C5.50984 11.17 5.55983 11.56 5.83983 11.77H5.82984Z" fill="white"/>
<path d="M6.46996 6.04001V5.12C6.46996 4.77 6.18996 4.48999 5.83996 4.48999C5.48996 4.48999 5.20996 4.77 5.20996 5.12V6.04001C5.20996 6.39001 5.48996 6.67001 5.83996 6.67001C6.18996 6.67001 6.46996 6.39001 6.46996 6.04001Z" fill="white"/>
<path d="M12.52 6.04001V5.12C12.52 4.77 12.24 4.48999 11.89 4.48999C11.54 4.48999 11.26 4.77 11.26 5.12V6.04001C11.26 6.39001 11.54 6.67001 11.89 6.67001C12.24 6.67001 12.52 6.39001 12.52 6.04001Z" fill="white"/>
<path d="M8.39982 9.37C8.51982 9.51 8.68982 9.57001 8.85982 9.57001C9.00982 9.57001 9.16982 9.52 9.28982 9.4L10.0598 8.70002C10.2598 8.52002 10.3198 8.23002 10.2098 7.98002L9.43982 6.26002C9.29982 5.94002 8.91982 5.80001 8.60982 5.94001C8.29982 6.08001 8.14982 6.45 8.28982 6.77L8.86983 8.07001L8.43982 8.47001C8.17982 8.71001 8.16982 9.09999 8.39982 9.35999V9.37Z" fill="white"/>
</svg>
