<svg width="18" height="18" viewBox="0 0 18 18" fill="none" xmlns="http://www.w3.org/2000/svg">
<path d="M4.79006 8.76001C4.79006 7.92001 5.02006 7.13001 5.43006 6.45001V3.58002H2.56006C1.42006 5.06002 0.810059 6.86 0.810059 8.75C0.810059 10.64 1.43006 12.45 2.56006 13.92H5.43006V11.05C5.03006 10.37 4.79006 9.58999 4.79006 8.73999V8.76001Z" fill="#FBBD00"/>
<path d="M9.30006 13.28L7.31006 15.27L9.30006 17.26C11.2001 17.26 13.0001 16.64 14.4701 15.51V12.65H11.6101C10.9301 13.05 10.1401 13.28 9.30006 13.28Z" fill="#0F9D58"/>
<path d="M5.42004 11.07L2.55005 13.94C2.78005 14.23 3.02005 14.51 3.29005 14.78C4.90005 16.39 7.03005 17.27 9.30005 17.27V13.29C7.65005 13.29 6.21004 12.4 5.42004 11.08V11.07Z" fill="#31AA52"/>
<path d="M17.8 8.76001C17.8 8.24001 17.75 7.71997 17.66 7.21997L17.59 6.81H9.30005V10.79H13.33C12.94 11.57 12.34 12.2 11.61 12.64L14.47 15.5C14.76 15.27 15.04 15.03 15.31 14.76C16.92 13.15 17.8 11.02 17.8 8.75V8.76001Z" fill="#3C79E6"/>
<path d="M12.5001 5.57001L12.8501 5.91998L15.6701 3.09998L15.3201 2.75C13.7101 1.14 11.5801 0.26001 9.31007 0.26001L7.32007 2.25L9.31007 4.23999C10.5201 4.23999 11.6501 4.71 12.5001 5.56V5.57001Z" fill="#CF2D48"/>
<path d="M9.30005 4.25V0.27002C7.03005 0.27002 4.90005 1.15001 3.29005 2.76001C3.02005 3.03001 2.78005 3.30998 2.55005 3.59998L5.42004 6.46997C6.21004 5.14997 7.65005 4.26001 9.30005 4.26001V4.25Z" fill="#EB4132"/>
</svg>
