<svg width="15" height="14" viewBox="0 0 15 14" fill="none" xmlns="http://www.w3.org/2000/svg">
<path d="M7.4202 9.3999C7.0202 9.3999 6.7002 9.72988 6.7002 10.1299C6.7002 10.5299 7.0102 10.8599 7.4202 10.8599C7.8302 10.8599 8.1502 10.5199 8.1502 10.1299C8.1502 9.72988 7.8202 9.3999 7.4202 9.3999Z" fill="white"/>
<path d="M7.54993 3.83984C6.25993 3.83984 5.66992 4.59981 5.66992 5.11981C5.66992 5.48981 5.97992 5.65979 6.23992 5.65979C6.74992 5.65979 6.53992 4.92981 7.51992 4.92981C7.99992 4.92981 8.37992 5.13983 8.37992 5.57983C8.37992 6.08983 7.84992 6.38979 7.52992 6.65979C7.24992 6.89979 6.88992 7.2898 6.88992 8.1098C6.88992 8.6098 7.01993 8.74982 7.40993 8.74982C7.87993 8.74982 7.96992 8.5398 7.96992 8.3598C7.96992 7.8598 7.96992 7.5798 8.49992 7.1698C8.75992 6.9698 9.56992 6.31981 9.56992 5.42981C9.56992 4.53981 8.75992 3.8598 7.53992 3.8598L7.54993 3.83984Z" fill="white"/>
<path d="M7.64014 0.00976562C3.77014 0.00976562 0.640137 3.13977 0.640137 7.00977V13.4598C0.640137 13.7598 0.88014 14.0098 1.19014 14.0098H7.64014C11.5101 14.0098 14.6401 10.8798 14.6401 7.00977C14.6401 3.13977 11.5101 0.00976562 7.64014 0.00976562ZM7.64014 12.9197H1.73014V7.00977C1.73014 3.74977 4.37014 1.09973 7.64014 1.09973C10.9101 1.09973 13.5501 3.73977 13.5501 7.00977C13.5501 10.2798 10.9101 12.9197 7.64014 12.9197Z" fill="white"/>
</svg>
