<svg width="15" height="16" viewBox="0 0 15 16" fill="none" xmlns="http://www.w3.org/2000/svg">
<g opacity="0.43">
<path d="M11.5299 11.41C11.8723 11.41 12.1499 11.1324 12.1499 10.79C12.1499 10.4476 11.8723 10.17 11.5299 10.17C11.1875 10.17 10.9099 10.4476 10.9099 10.79C10.9099 11.1324 11.1875 11.41 11.5299 11.41Z" fill="white"/>
<path d="M14.35 11.29C14.7 11.29 14.97 11.01 14.97 10.67V8.35999C14.97 6.97999 13.85 5.85999 12.47 5.85999H11.72V3.66C11.72 1.64 10.04 -0.0100098 7.96997 -0.0100098C5.89997 -0.0100098 4.21997 1.64 4.21997 3.66V5.85999H3.46997C2.08997 5.85999 0.969971 6.97999 0.969971 8.35999V13.48C0.969971 14.86 2.08997 15.98 3.46997 15.98H12.47C13.85 15.98 14.97 14.86 14.97 13.48C14.97 13.13 14.69 12.86 14.35 12.86C14.01 12.86 13.73 13.14 13.73 13.48C13.73 14.17 13.17 14.73 12.48 14.73H3.47997C2.78997 14.73 2.22997 14.17 2.22997 13.48V8.35999C2.22997 7.66999 2.78997 7.10999 3.47997 7.10999H12.48C13.17 7.10999 13.73 7.66999 13.73 8.35999V10.67C13.73 11.02 14.01 11.29 14.35 11.29ZM10.47 5.85001H5.46997V3.64999C5.46997 2.31999 6.58997 1.23001 7.96997 1.23001C9.34997 1.23001 10.47 2.31999 10.47 3.64999V5.85001Z" fill="white"/>
<path d="M6.81995 11.41C7.16237 11.41 7.43995 11.1324 7.43995 10.79C7.43995 10.4476 7.16237 10.17 6.81995 10.17C6.47753 10.17 6.19995 10.4476 6.19995 10.79C6.19995 11.1324 6.47753 11.41 6.81995 11.41Z" fill="white"/>
<path d="M4.46986 11.41C4.81227 11.41 5.08986 11.1324 5.08986 10.79C5.08986 10.4476 4.81227 10.17 4.46986 10.17C4.12744 10.17 3.84985 10.4476 3.84985 10.79C3.84985 11.1324 4.12744 11.41 4.46986 11.41Z" fill="white"/>
<path d="M9.16004 11.41C9.50245 11.41 9.78004 11.1324 9.78004 10.79C9.78004 10.4476 9.50245 10.17 9.16004 10.17C8.81762 10.17 8.54004 10.4476 8.54004 10.79C8.54004 11.1324 8.81762 11.41 9.16004 11.41Z" fill="white"/>
</g>
</svg>
