<svg width="16" height="16" viewBox="0 0 16 16" fill="none" xmlns="http://www.w3.org/2000/svg">
<path opacity="0.43" d="M13.66 15.75C6.28003 15.75 0.280029 9.75 0.280029 2.37C0.280029 1.26 1.18003 0.350006 2.30003 0.350006H4.50003C5.36003 0.350006 6.13003 0.870013 6.45003 1.67001L7.29003 3.78C7.58003 4.5 7.45003 5.30999 6.95003 5.89999L6.50003 6.44C6.13003 6.88 6.16003 7.52001 6.57003 7.92001L8.10003 9.45001C8.31003 9.66001 8.58003 9.76999 8.88003 9.76999C9.14003 9.76999 9.39003 9.67999 9.58003 9.51999L10.12 9.07001C10.5 8.76001 10.97 8.57999 11.47 8.57999C11.74 8.57999 12 8.63001 12.25 8.73001L14.36 9.57001C15.16 9.89001 15.68 10.66 15.68 11.52V13.72C15.68 14.83 14.78 15.74 13.66 15.74V15.75ZM2.29003 1.35001C1.73003 1.35001 1.27003 1.81 1.27003 2.37C1.27003 9.2 6.83003 14.75 13.65 14.75C14.21 14.75 14.67 14.29 14.67 13.73V11.53C14.67 11.08 14.4 10.68 13.98 10.51L11.87 9.67001C11.74 9.62001 11.6 9.59 11.46 9.59C11.2 9.59 10.95 9.68 10.76 9.84L10.22 10.29C9.84003 10.6 9.37003 10.78 8.88003 10.78C8.32003 10.78 7.79003 10.56 7.39003 10.16L5.86003 8.63C5.09003 7.86 5.03003 6.63999 5.73003 5.79999L6.18003 5.26001C6.44003 4.95001 6.51003 4.51999 6.36003 4.14999L5.52003 2.04001C5.35003 1.62001 4.95003 1.35001 4.50003 1.35001H2.30003H2.29003Z" fill="white"/>
</svg>
