<svg width="17" height="18" viewBox="0 0 17 18" fill="none" xmlns="http://www.w3.org/2000/svg">
<path d="M8.72005 8.23005C8.67005 8.08005 8.47004 8.08005 8.42004 8.23005L8.00004 9.51008C7.98004 9.58008 7.92004 9.62007 7.85004 9.62007H6.50004C6.35004 9.62007 6.28005 9.82005 6.41005 9.91005L7.50004 10.7001C7.56004 10.7401 7.58004 10.8101 7.56004 10.8801L7.14004 12.16C7.09004 12.31 7.26004 12.4301 7.38004 12.3401L8.47005 11.5501C8.53005 11.5101 8.60005 11.5101 8.66005 11.5501L9.75004 12.3401C9.87004 12.4301 10.04 12.31 9.99004 12.16L9.57004 10.8801C9.55004 10.8201 9.57004 10.7401 9.63004 10.7001L10.72 9.91005C10.84 9.82005 10.78 9.62007 10.63 9.62007H9.28004C9.21004 9.62007 9.15004 9.58008 9.13004 9.51008L8.71004 8.23005H8.72005Z" fill="url(#paint0_linear_1_2265)"/>
<path d="M8.33997 12.6201C8.33997 12.4901 8.44997 12.3801 8.57997 12.3801C8.70997 12.3801 8.81997 12.4901 8.81997 12.6201V14.9901C8.81997 15.1201 8.70997 15.2301 8.57997 15.2301C8.44997 15.2301 8.33997 15.1201 8.33997 14.9901V12.6201Z" fill="url(#paint1_linear_1_2265)"/>
<path d="M7.84998 12.8601C7.71998 12.8601 7.60999 12.9701 7.60999 13.1001V14.6801C7.60999 14.8101 7.71998 14.9201 7.84998 14.9201C7.97998 14.9201 8.08998 14.8101 8.08998 14.6801V13.1001C8.08998 12.9701 7.97998 12.8601 7.84998 12.8601Z" fill="url(#paint2_linear_1_2265)"/>
<path d="M9.29005 12.8601C9.16005 12.8601 9.05005 12.9701 9.05005 13.1001V14.6801C9.05005 14.8101 9.16005 14.9201 9.29005 14.9201C9.42005 14.9201 9.53004 14.8101 9.53004 14.6801V13.1001C9.53004 12.9701 9.42005 12.8601 9.29005 12.8601Z" fill="url(#paint3_linear_1_2265)"/>
<path fill-rule="evenodd" clip-rule="evenodd" d="M10.61 6.62005H6.5C6.06 6.62005 5.71 6.97003 5.71 7.41003V15.9501C5.71 16.3901 6.06 16.74 6.5 16.74H10.61C11.05 16.74 11.4 16.3901 11.4 15.9501V7.41003C11.4 6.97003 11.05 6.62005 10.61 6.62005ZM15.83 4.76006V12.98C15.83 13.19 15.68 13.3601 15.47 13.3901C14.33 13.5201 13.18 13.6301 12.04 13.6901V7.41003C12.04 6.62003 11.4 5.99004 10.62 5.99004H6.51C5.72 5.99004 5.09 6.63002 5.09 7.41003V13.6901C3.94 13.6201 2.8 13.5201 1.66 13.3901C1.45 13.3701 1.3 13.19 1.3 12.98V4.76006C1.3 4.35006 1.62 4.00002 2.03 3.97002L2.45 3.94005C6.52 3.62005 10.61 3.62005 14.69 3.94005L15.11 3.97002C15.52 4.00002 15.84 4.35006 15.84 4.76006H15.83ZM10.54 0.870047C10.68 0.650047 10.62 0.360074 10.41 0.210074C10.19 0.070074 9.9 0.130079 9.75 0.340079L8.27 2.58007L6.82 1.34008C6.62 1.17008 6.32 1.19007 6.15 1.39007C5.98 1.59007 6 1.89005 6.2 2.06005L7.19 2.91003C5.59 2.94003 3.98 3.01007 2.38 3.14007L1.96 3.17003C1.14 3.23003 0.5 3.92005 0.5 4.75005V12.97C0.5 13.58 0.949998 14.09 1.56 14.16C2.73 14.3 3.91 14.4 5.09 14.47V15.93C5.09 16.72 5.73 17.35 6.51 17.35H10.62C11.41 17.35 12.04 16.71 12.04 15.93V14.47C13.22 14.4 14.39 14.3 15.56 14.16C16.16 14.09 16.62 13.58 16.62 12.97V4.75005C16.62 3.93005 15.99 3.24003 15.16 3.17003L14.74 3.14007C12.89 2.99007 11.04 2.92008 9.19 2.90008L10.54 0.860037V0.870047Z" fill="url(#paint4_linear_1_2265)"/>
<defs>
<linearGradient id="paint0_linear_1_2265" x1="17.94" y1="3.58001" x2="1.83993" y2="15.8" gradientUnits="userSpaceOnUse">
<stop stop-color="#F79B1E"/>
<stop offset="1" stop-color="#ED1945"/>
</linearGradient>
<linearGradient id="paint1_linear_1_2265" x1="19.45" y1="5.56018" x2="3.35011" y2="17.7803" gradientUnits="userSpaceOnUse">
<stop stop-color="#F79B1E"/>
<stop offset="1" stop-color="#ED1945"/>
</linearGradient>
<linearGradient id="paint2_linear_1_2265" x1="19.2199" y1="5.26012" x2="3.11993" y2="17.48" gradientUnits="userSpaceOnUse">
<stop stop-color="#F79B1E"/>
<stop offset="1" stop-color="#ED1945"/>
</linearGradient>
<linearGradient id="paint3_linear_1_2265" x1="19.74" y1="5.95012" x2="3.64001" y2="18.17" gradientUnits="userSpaceOnUse">
<stop stop-color="#F79B1E"/>
<stop offset="1" stop-color="#ED1945"/>
</linearGradient>
<linearGradient id="paint4_linear_1_2265" x1="17.02" y1="2.35007" x2="0.920036" y2="14.5801" gradientUnits="userSpaceOnUse">
<stop stop-color="#F79B1E"/>
<stop offset="1" stop-color="#ED1945"/>
</linearGradient>
</defs>
</svg>
