<svg width="20" height="21" viewBox="0 0 20 21" fill="none" xmlns="http://www.w3.org/2000/svg">
<path d="M19.75 10.6C19.77 10.46 19.75 10.33 19.68 10.21C19.68 10.09 19.66 9.96995 19.65 9.85995C19.35 8.40995 18.74 7.15996 17.62 6.12996C16.95 5.50996 16.32 4.86995 15.5 4.44995C15.45 4.44995 15.41 4.46995 15.36 4.47995C15.31 4.47995 15.27 4.48995 15.22 4.49995C15.02 4.47995 14.83 4.47995 14.63 4.49995C14.52 4.49995 14.41 4.47996 14.3 4.45996C13.99 4.45996 13.69 4.54995 13.4 4.64995C12.19 5.04995 10.96 5.32995 9.67998 5.02995C9.62998 5.03995 9.58998 5.05995 9.55998 5.08995C9.21998 4.94995 9.47998 5.27995 9.40998 5.35995C9.39998 5.35995 9.38998 5.35995 9.37998 5.35995C9.25998 5.39995 9.22998 5.50995 9.20998 5.61995C9.00998 6.57995 8.35998 7.03995 7.45998 7.24995C7.17998 7.30995 6.88997 7.30995 6.62997 7.42995C6.73997 7.05995 6.97998 6.72996 6.97998 6.32996C6.92998 6.11996 6.93998 5.91996 6.97998 5.71996C6.83998 5.22996 6.69998 5.13996 6.37997 5.43996C5.42998 6.33996 4.31998 6.48996 3.09998 6.20996C2.92998 6.16996 2.73998 6.07996 2.56998 6.23996C1.55998 7.40996 0.749978 8.67996 0.499978 10.24C0.499978 10.36 0.479979 10.48 0.469979 10.59C0.389979 10.71 0.379979 10.84 0.399979 10.9799C0.399979 11.4099 0.399979 11.84 0.399979 12.28C0.379979 12.42 0.389979 12.55 0.469979 12.67C0.469979 12.79 0.489978 12.91 0.499978 13.03C0.839978 15.04 1.70998 16.74 3.29998 18.06C4.79998 19.31 6.47998 20.12 8.40998 20.38C8.58998 20.39 8.76997 20.4 8.94998 20.41C9.13997 20.5 9.32998 20.49 9.52998 20.4799C9.73998 20.4799 9.95998 20.4799 10.17 20.4799C10.37 20.5 10.57 20.5 10.75 20.41C10.93 20.4 11.11 20.39 11.28 20.38C11.85 20.32 12.41 20.19 12.95 20.03C15.07 19.39 16.85 18.25 18.23 16.5C19.05 15.45 19.42 14.23 19.66 12.94C19.66 12.82 19.68 12.7 19.68 12.58C19.75 12.46 19.77 12.33 19.75 12.19C19.79 11.66 19.8 11.14 19.75 10.61V10.6Z" fill="#FE2B03"/>
<path d="M14.72 3.76988C13.74 3.19988 12.67 2.96987 11.54 3.11987C11.39 3.12987 11.24 3.13986 11.1 3.14986C10.95 3.11986 10.78 3.30987 10.67 3.16987C10.56 3.03987 10.7 2.87988 10.75 2.73988C10.89 2.29988 11.32 2.17987 11.67 1.97987C11.12 1.27987 10.49 1.05987 9.75 1.24987C8.98 1.45987 8.56 2.07987 8.05 2.63987C7.79 2.02987 7.52 1.43987 7.28 0.839867C7.14 0.479867 6.98 0.319872 6.62 0.609872C6.44 0.759872 6.23 0.869878 6.02 0.959878C5.78 1.06988 5.73 1.16987 5.92 1.38987C6.26 1.79987 6.57 2.22988 6.93 2.70988C6.56 2.61988 6.27 2.54988 5.97 2.48988C5.66 2.43988 5.35 2.43988 5.05 2.48988C4.15 2.61988 3.47 3.09987 2.9 3.77987C2.77 3.85987 2.77 3.94988 2.93 3.95988C3.1 3.97988 3.28 3.95987 3.46 3.94987C3.42 3.93987 3.39 3.92987 3.35 3.91987C3.39 3.91987 3.43 3.92987 3.46 3.94987C3.62 3.94987 3.77 3.94987 3.93 3.94987C4.11 3.94987 4.3 3.96987 4.48 3.97987C4.71 4.04987 4.95 4.11987 5.29 4.22987C3.86 4.45987 2.89 5.31987 1.75 5.96987C2.06 6.06987 2.31 6.14987 2.57 6.22987C2.66 6.23987 2.75 6.24988 2.84 6.26988C4.26 6.60988 5.57 6.52987 6.6 5.32987C6.62 5.30987 6.65 5.30987 6.69 5.29987C6.79 5.42987 6.9 5.56987 6.9 5.74987C6.85 5.92987 6.85 6.11987 6.9 6.29987C6.87 6.72987 6.59 7.05987 6.49 7.46987C8.03 7.41987 9.12 6.97988 9.42 5.34988C9.51 5.28988 9.46 5.10988 9.61 5.09988C10.45 5.34988 11.29 5.34988 12.15 5.12988C12.89 4.93988 13.61 4.64987 14.37 4.54987C14.74 4.54987 15.11 4.56988 15.48 4.51988C15.48 4.48987 15.48 4.45987 15.5 4.43987C15.39 4.04987 15.02 3.93988 14.73 3.76988H14.72Z" fill="#00870A"/>
</svg>
