<svg width="17" height="19" viewBox="0 0 17 19" fill="none" xmlns="http://www.w3.org/2000/svg">
<path d="M1.61993 18.83C1.22993 18.83 0.919922 18.52 0.919922 18.13C0.919922 14.6 3.78992 11.73 7.31992 11.73H8.36993C9.08993 11.73 9.79993 11.85 10.4799 12.09C10.8499 12.22 11.0399 12.62 10.9099 12.99C10.7799 13.36 10.3799 13.55 10.0099 13.42C9.47993 13.24 8.92993 13.14 8.36993 13.14H7.31992C4.56992 13.14 2.32993 15.38 2.32993 18.13C2.32993 18.52 2.01992 18.83 1.62992 18.83H1.61993ZM12.5199 5.57001C12.5199 2.95001 10.3899 0.820007 7.76992 0.820007C5.14992 0.820007 3.01992 2.95001 3.01992 5.57001C3.01992 8.19001 5.14992 10.32 7.76992 10.32C10.3899 10.32 12.5199 8.19001 12.5199 5.57001ZM11.1199 5.57001C11.1199 7.41001 9.61992 8.91 7.77992 8.91C5.93992 8.91 4.43993 7.41001 4.43993 5.57001C4.43993 3.73001 5.93992 2.23001 7.77992 2.23001C9.61992 2.23001 11.1199 3.73001 11.1199 5.57001ZM16.1399 14.61H14.0299V12.5C14.0299 12.11 13.7199 11.8 13.3299 11.8C12.9399 11.8 12.6299 12.11 12.6299 12.5V14.61H10.5199C10.1299 14.61 9.81992 14.92 9.81992 15.31C9.81992 15.7 10.1299 16.01 10.5199 16.01H12.6299V18.12C12.6299 18.51 12.9399 18.82 13.3299 18.82C13.7199 18.82 14.0299 18.51 14.0299 18.12V16.01H16.1399C16.5299 16.01 16.8399 15.7 16.8399 15.31C16.8399 14.92 16.5299 14.61 16.1399 14.61Z" fill="white"/>
</svg>
